# xmcd
#
# Track frame offsets: 
#        225
#        12011
#        26841
#        40837
#        54950
#        68903
#        84194
#        97882
#        110841
#        124317
#        138084
#        152511
#        164280
#        178997
#        194383
#        211531
#
# Disc length: 3002 seconds
#
# Revision: 0
# Processed by: cddbd v1.5.1PL0 Copyright (c) Steve Scherf et al.
# Submitted via: ExactAudioCopy v0.90b4
#
DISCID=cb0bb710
DTITLE=Die Schlapse - Tekkno-Weihnachten
DYEAR=1995
DGENRE=
TTITLE0=Leise rieselt der Schnee
TTITLE1=Alle Jahre wieder
TTITLE2=Fröhliche Weihnacht überall
TTITLE3=Ihr Kinderlein kommet
TTITLE4=Jingle Bells
TTITLE5=Kling Glöckchen klingeling
TTITLE6=Kommet ihr Hirten
TTITLE7=Laßt uns froh und munter sein
TTITLE8=Morgen kommt der Weihnachtsmann
TTITLE9=Morgen Kinder wird's was geben
TTITLE10=Oh du fröhliche
TTITLE11=Oh Tannenbaum
TTITLE12=Süßer die Glocken nie klingen
TTITLE13=Stille Nacht, Heilige Nacht
TTITLE14=Zu Weihnachten, da wünsch ich mir
TTITLE15=Hurrah, Weihnachten ist da
EXTD=
EXTT0=
EXTT1=
EXTT2=
EXTT3=
EXTT4=
EXTT5=
EXTT6=
EXTT7=
EXTT8=
EXTT9=
EXTT10=
EXTT11=
EXTT12=
EXTT13=
EXTT14=
EXTT15=
PLAYORDER=
